<?xml version="1.0" encoding="UTF-8" standalone="no"?><!DOCTYPE svg PUBLIC "-//W3C//DTD SVG 1.1//EN" "http://www.w3.org/Graphics/SVG/1.1/DTD/svg11.dtd"><svg width="100%" height="100%" viewBox="0 0 209 209" version="1.1" xmlns="http://www.w3.org/2000/svg" xmlns:xlink="http://www.w3.org/1999/xlink" xml:space="preserve" xmlns:serif="http://www.serif.com/" style="fill-rule:evenodd;clip-rule:evenodd;stroke-linejoin:round;stroke-miterlimit:2;"><circle cx="104.167" cy="104.167" r="104.167" style="fill:#183960;"/><path d="M159.875,111.958c-1.283,-11.492 -4.778,-22.627 -10.292,-32.791c-1.75,-3.292 -3.791,-6.5 -5.791,-9.709c-0.338,-0.501 -0.817,-0.893 -1.375,-1.125c-6.883,-3.183 -14.132,-5.506 -21.584,-6.916c-0.109,-0.042 -0.226,-0.064 -0.343,-0.064c-0.409,-0 -0.774,0.261 -0.907,0.647c-0.708,1.5 -1.5,2.917 -2.125,4.458c-0.333,0.75 -0.75,0.834 -1.5,0.834c-4.708,-0.292 -9.416,-0.75 -14.125,-0.792c-3.109,0.059 -6.212,0.31 -9.291,0.75c-0.875,0 -1.375,0 -1.75,-0.917c-0.375,-0.916 -1.417,-2.875 -2.125,-4.166c-0.25,-0.584 -0.625,-0.667 -1.25,-0.542c-7.456,1.362 -14.719,3.628 -21.625,6.75c-0.506,0.224 -0.939,0.584 -1.25,1.042c-7.377,10.839 -12.493,23.055 -15.042,35.916c-1.68,8.912 -2.087,18.016 -1.208,27.042c0.077,0.411 0.299,0.78 0.625,1.042c8.183,6.016 17.307,10.634 27,13.666c0.353,0.178 0.771,0.178 1.125,0c2,-3 3.916,-6.083 5.916,-9.208l-9.583,-4.625c1.417,-1.917 2.042,-2.083 3.875,-1.333c17.042,7.539 36.5,7.539 53.542,-0c1.958,-0.834 2.25,-0.75 3.916,1.166c-1.583,0.834 -3.083,1.667 -4.625,2.417c-1.541,0.75 -3.125,1.375 -4.875,2.167c1.584,2.625 3.042,5.125 4.625,7.583c1.584,2.458 1.542,2.25 4.167,1.417c9.028,-3.115 17.519,-7.613 25.167,-13.334c0.421,-0.359 0.69,-0.866 0.75,-1.416c0.25,-1.542 0.333,-3.042 0.458,-4.584l0,-9.041c-0.125,-2.084 -0.292,-4.209 -0.5,-6.334Zm-67.625,4.709c-1.752,1.917 -4.232,3.01 -6.829,3.01c-2.374,0 -4.66,-0.914 -6.379,-2.552c-2.366,-2.346 -3.698,-5.543 -3.698,-8.875c0,-3.332 1.332,-6.529 3.698,-8.875c1.77,-1.579 4.061,-2.452 6.433,-2.452c4.392,0 8.258,2.992 9.358,7.244c0.251,0.717 0.433,1.456 0.542,2.208c0.035,0.583 0.035,1.167 0,1.75c0.129,3.147 -0.996,6.22 -3.125,8.542Zm37.5,-0c-1.752,1.917 -4.232,3.01 -6.829,3.01c-2.374,0 -4.66,-0.914 -6.379,-2.552c-2.366,-2.346 -3.698,-5.543 -3.698,-8.875c0,-3.332 1.332,-6.529 3.698,-8.875c1.77,-1.579 4.061,-2.452 6.433,-2.452c4.392,0 8.258,2.992 9.358,7.244c0.252,0.717 0.433,1.456 0.542,2.208c0.035,0.583 0.035,1.167 0,1.75c0.14,3.141 -0.969,6.214 -3.083,8.542l-0.042,-0Z" style="fill:#fff;fill-rule:nonzero;"/></svg>