<?xml version="1.0" encoding="UTF-8" standalone="no"?><!DOCTYPE svg PUBLIC "-//W3C//DTD SVG 1.1//EN" "http://www.w3.org/Graphics/SVG/1.1/DTD/svg11.dtd"><svg width="100%" height="100%" viewBox="0 0 209 209" version="1.1" xmlns="http://www.w3.org/2000/svg" xmlns:xlink="http://www.w3.org/1999/xlink" xml:space="preserve" xmlns:serif="http://www.serif.com/" style="fill-rule:evenodd;clip-rule:evenodd;stroke-linejoin:round;stroke-miterlimit:2;"><circle cx="104.167" cy="104.167" r="104.167" style="fill:#183960;"/><g id="Page-1"><g id="Social_icons"><g id="Instagram"><g><path id="Shape" d="M104.167,41.667c-16.959,-0 -19.084,-0 -25.75,0.375c-5.184,0.107 -10.313,1.093 -15.167,2.916c-8.399,3.246 -15.046,9.893 -18.292,18.292c-1.823,4.854 -2.809,9.983 -2.916,15.167c-0.375,6.625 -0.375,8.791 -0.375,25.75c-0,16.958 -0,19.083 0.375,25.75c0.107,5.184 1.093,10.312 2.916,15.166c3.25,8.396 9.896,15.042 18.292,18.292c4.854,1.823 9.983,2.809 15.167,2.917c6.666,0.291 8.791,0.375 25.75,0.375c16.958,-0 19.083,-0 25.75,-0.375c5.184,-0.108 10.312,-1.094 15.166,-2.917c8.393,-3.254 15.038,-9.899 18.292,-18.292c1.814,-4.856 2.8,-9.983 2.917,-15.166c0.375,-6.667 0.375,-8.792 0.375,-25.75c-0,-16.959 -0,-19.084 -0.375,-25.75c-0.116,-5.183 -1.102,-10.311 -2.917,-15.167c-3.245,-8.399 -9.893,-15.046 -18.292,-18.292c-4.854,-1.823 -9.982,-2.809 -15.166,-2.916c-6.667,-0.375 -8.792,-0.375 -25.75,-0.375Zm-5.625,11.25l5.625,-0c16.666,-0 18.666,-0 25.25,0.375c3.97,0.049 7.903,0.782 11.625,2.166c5.446,2.116 9.759,6.429 11.875,11.875c1.38,3.709 2.113,7.627 2.166,11.584c0.292,6.583 0.375,8.583 0.375,25.25c0,16.666 0,18.666 -0.375,25.25c-0.054,3.956 -0.787,7.874 -2.166,11.583c-2.116,5.446 -6.429,9.759 -11.875,11.875c-3.721,1.387 -7.654,2.12 -11.625,2.167c-6.584,0.291 -8.584,0.375 -25.25,0.375c-16.667,-0 -18.667,-0 -25.25,-0.375c-3.971,-0.051 -7.903,-0.784 -11.625,-2.167c-5.447,-2.116 -9.759,-6.429 -11.875,-11.875c-1.381,-3.708 -2.114,-7.627 -2.167,-11.583c-0.25,-6.625 -0.333,-8.584 -0.333,-25.25c-0,-16.667 -0,-18.667 0.375,-25.25c0.054,-3.957 0.787,-7.875 2.166,-11.584c2.116,-5.446 6.429,-9.759 11.875,-11.875c3.722,-1.385 7.655,-2.118 11.625,-2.166c5.75,-0.25 8,-0.334 19.667,-0.334l-0.083,-0.041Zm38.958,10.375c-4.114,-0 -7.5,3.385 -7.5,7.5c0,4.114 3.386,7.5 7.5,7.5c4.114,-0 7.5,-3.386 7.5,-7.5c0,-4.115 -3.386,-7.5 -7.5,-7.5Zm-33.333,8.75c-17.601,-0 -32.084,14.483 -32.084,32.083c0,17.6 14.483,32.083 32.084,32.083c17.584,0 32.06,-14.457 32.083,-32.041c0,-17.601 -14.483,-32.084 -32.083,-32.084l-0,-0.041Zm-0,11.291c11.428,0 20.833,9.405 20.833,20.834c0,11.428 -9.405,20.833 -20.833,20.833c-11.429,0 -20.834,-9.405 -20.834,-20.833c0,-11.429 9.405,-20.834 20.834,-20.834Z" style="fill:#fff;fill-rule:nonzero;"/></g></g></g></g></svg>