<?xml version="1.0" encoding="utf-8"?>
<!-- Generator: Adobe Illustrator 25.4.1, SVG Export Plug-In . SVG Version: 6.00 Build 0)  -->
<svg version="1.1" id="Layer_1" xmlns="http://www.w3.org/2000/svg" xmlns:xlink="http://www.w3.org/1999/xlink" x="0px" y="0px"
	 viewBox="0 0 94.7 79.8" style="enable-background:new 0 0 94.7 79.8;" xml:space="preserve">
<style type="text/css">
	.st0{clip-path:url(#SVGID_00000009587167311808818860000015345028264444586642_);}
	.st1{fill:#FF4E58;}
	.st2{fill:#FFFFFF;}
	.st3{fill:#0D133B;}
</style>
<g id="Layer_2_00000144320934356292122320000001079077133106587265_">
	<g id="Layer_4">
		<g>
			<g>
				<g>
					<defs>
						<path id="SVGID_1_" d="M7,3.5c-2.9,13-1.6,20.8-0.5,24.4c0.4,1.2,0.2,2.5-0.5,3.6c-2.3,3.9-4.3,8-5.8,12.2
							c-0.3,0.8-0.3,1.7-0.1,2.5c1.6,6.3,10.7,33.6,47,33.6s45.4-27.2,47-33.5c0.2-0.8,0.2-1.7-0.1-2.5c-1.6-4.3-3.5-8.4-5.8-12.2
							c-0.7-1.1-0.8-2.4-0.5-3.6c1.1-3.6,2.4-11.5-0.5-24.5c-0.5-2-2.3-3.4-4.4-3.4C68.5,0.5,61,4,57.8,5.9c-0.9,0.5-2,0.7-3,0.5
							c-2.5-0.5-5.1-0.7-7.6-0.7c-2.6,0-5.1,0.3-7.6,0.7c-1,0.2-2.1,0-3-0.5C33.4,4,25.8,0.6,11.5,0.1C9.4,0,7.5,1.4,7,3.5z"/>
					</defs>
					<clipPath id="SVGID_00000133503846539104991030000001981585194650055597_">
						<use xlink:href="#SVGID_1_"  style="overflow:visible;"/>
					</clipPath>
					<g style="clip-path:url(#SVGID_00000133503846539104991030000001981585194650055597_);">
						<path class="st1" d="M7,3.5c-2.9,13-1.6,20.8-0.5,24.4c0.4,1.2,0.2,2.5-0.5,3.6c-2.3,3.9-4.3,8-5.8,12.2
							c-0.3,0.8-0.3,1.7-0.1,2.5c1.6,6.3,10.7,33.6,47,33.6s45.4-27.2,47-33.5c0.2-0.8,0.2-1.7-0.1-2.5c-1.6-4.3-3.5-8.4-5.8-12.2
							c-0.7-1.1-0.8-2.4-0.5-3.6c1.1-3.6,2.4-11.5-0.5-24.5c-0.5-2-2.3-3.4-4.4-3.4C68.5,0.5,61,4,57.8,5.9c-0.9,0.5-2,0.7-3,0.5
							c-2.5-0.5-5.1-0.7-7.6-0.7c-2.6,0-5.1,0.3-7.6,0.7c-1,0.2-2.1,0-3-0.5C33.4,4,25.8,0.6,11.5,0.1C9.4,0,7.5,1.4,7,3.5z"/>
						<ellipse transform="matrix(0.342 -0.9397 0.9397 0.342 -3.5164 53.1489)" class="st2" cx="36.2" cy="29.1" rx="3" ry="5"/>
						<ellipse transform="matrix(0.342 -0.9397 0.9397 0.342 -3.5164 53.1489)" class="st2" cx="36.2" cy="29.1" rx="3" ry="5"/>
						<ellipse transform="matrix(0.9397 -0.342 0.342 0.9397 -6.4418 21.6599)" class="st2" cx="58.2" cy="29.1" rx="5" ry="3"/>
						<ellipse transform="matrix(0.9397 -0.342 0.342 0.9397 -6.4418 21.6599)" class="st2" cx="58.2" cy="29.1" rx="5" ry="3"/>
						<path class="st3" d="M26.4,38.6c1.5-3.4,5.3-5.1,8.5-3.7c3.2,1.6,4.5,5.5,2.9,8.8c-1.3,3.4-5.1,5-8.5,3.7
							C26.1,45.8,24.8,41.9,26.4,38.6z"/>
						<path class="st2" d="M29,41.5c1,0.4,2.2-0.5,2.7-1.8s0.1-2.8-0.8-3.2s-2.2,0.5-2.7,1.8S28,41.2,29,41.5z"/>
						<g>
							<path class="st2" d="M63.1,73.2c0.1-2.8,0-6-0.5-9.6c-1.7-12.8-9.3-16.1-13.1-16.9c-0.6-0.2-1.2-0.3-1.8-0.3
								c-0.3,0-0.4,0-0.4,0l0,0l0,0l0,0c0,0-0.2,0-0.4,0c-0.7,0-1.4,0.1-2,0.3C41,47.6,33.6,51,32,63.6c-0.5,3.6-0.6,6.8-0.5,9.6
								c4.8,1.5,10.1,2.2,15.9,2.2C53,75.4,58.3,74.6,63.1,73.2z"/>
						</g>
						<path class="st1" d="M47.2,50.6c-1.8-0.1-3.6,0.1-5.3,0.6c-0.8,0.3-1.2,1.2-1,2c0.6,4,4,5.6,5.5,6.1c0.5,0.2,1.1,0.2,1.6,0
							c2.9-0.8,5-3.2,5.5-6.1c0.2-0.8-0.2-1.7-1-2C50.8,50.7,49,50.5,47.2,50.6z"/>
						<path class="st1" d="M56.5,62.9c-0.2,1.1-0.7,2-1.6,2.7c-0.9,0.7-2,1.2-3.1,1.3c-1.2,0.2-2.5,0-3.6-0.5
							c-0.6-0.2-1.1-0.5-1.6-0.8s-0.9-0.6-1.4-1l4-0.1c-0.2,0.2-0.5,0.5-0.8,0.7c-0.2,0.2-0.5,0.3-0.7,0.5c-0.5,0.3-1,0.6-1.6,0.8
							C45,67,43.8,67.1,42.6,67s-2.3-0.6-3.2-1.3C38.5,65,38,64,37.9,62.9v-0.1c0-0.1,0-0.1,0.1-0.1l0,0h0.1c0.3,0.3,0.6,0.6,1,0.8
							c0.3,0.2,0.7,0.5,1.1,0.6c0.7,0.4,1.6,0.6,2.4,0.5c0.8,0,1.7-0.2,2.4-0.6s1.4-0.9,2-1.5c0.1-0.1,0.3-0.1,0.4,0l0,0
							c0.3,0.3,0.6,0.6,0.9,0.8c0.3,0.3,0.7,0.5,1,0.7c0.7,0.4,1.5,0.6,2.4,0.6c1.7-0.1,3.3-0.8,4.5-2c0.1-0.1,0.1-0.1,0.2,0l0,0
							v0.1L56.5,62.9z"/>
						<path class="st3" d="M67.9,38.6c-1.1-3.3-4.7-5-8-3.9s-5,4.7-3.9,8c0.1,0.3,0.3,0.7,0.4,1c1.1,3.3,4.7,5,8,3.9
							c3.3-1.1,5-4.7,3.9-8C68.3,39.3,68.1,39,67.9,38.6z"/>
						<path class="st2" d="M58.7,41.5c-1-0.3-1.4-1.8-0.9-3.2s1.7-2.2,2.7-1.9s1.4,1.8,0.9,3.2S59.7,41.9,58.7,41.5z"/>
						<path class="st2" d="M82.2,8.6c-0.3-1.4-1.6-2.4-3.1-2.4C70,6.5,65.2,8.7,63.1,10c7.4,3.5,13.9,8.4,19.3,14.5
							C83.2,22.2,84.1,17.1,82.2,8.6z"/>
						<path class="st2" d="M12.2,8.6c0.3-1.4,1.6-2.4,3.1-2.4c9.1,0.3,13.9,2.5,16,3.8c-7.4,3.5-13.9,8.4-19.3,14.5
							C11.2,22.2,10.3,17.1,12.2,8.6z"/>
						<path class="st2" d="M65.8,50.2c-3.6,0.2-0.7,5.8-0.7,5.8c2.2,7.8,1.4,12.6,1.5,14.5s1.5,1.2,1.5,1.2c3.4-2,6.3-4.7,8.8-7.8
							c5.2-7,6-15.5,2.8-22.4C79.1,40.2,77,38,74.5,38S79.3,49.4,65.8,50.2z"/>
						<path class="st2" d="M28.5,50.2c3.6,0.2,0.7,5.8,0.7,5.8c-2.2,7.8-1.4,12.6-1.5,14.5s-1.5,1.2-1.5,1.2c-3.4-2-6.3-4.7-8.8-7.8
							c-5.2-7-6-15.5-2.8-22.4c0.6-1.3,2.7-3.6,5.2-3.6S15.1,49.4,28.5,50.2z"/>
						<path class="st1" d="M83,4.5c2.7,12,1.5,19,0.5,22.1c-0.7,2.4-0.4,5,0.9,7.2c2.2,3.6,4,7.5,5.5,11.4c-1.7,6.4-5,12.3-9.4,17.2
							c-7.9,8.6-19.1,13-33.2,13S21.9,71,14,62.4c-4.5-4.9-7.7-10.8-9.5-17.2c1.5-4,3.3-7.8,5.5-11.4c1.3-2.2,1.6-4.8,0.9-7.2
							c-0.9-3.1-2.2-10.1,0.5-22C25.1,5,31.9,8.3,34.2,9.7c1.3,0.8,2.9,1.3,4.5,1.3c0.6,0,1.1-0.1,1.7-0.2c4.5-0.9,9.1-0.9,13.6,0
							c0.6,0.1,1.1,0.2,1.7,0.2c1.6,0,3.1-0.4,4.5-1.3C62.5,8.3,69.3,5,83,4.5 M83,0h-0.2C68.5,0.5,61,4,57.8,5.9
							c-0.6,0.4-1.4,0.6-2.2,0.6c-0.3,0-0.6,0-0.9-0.1c-2.5-0.5-5.1-0.7-7.6-0.7c-2.6,0-5.1,0.3-7.6,0.7c-0.3,0.1-0.6,0.1-0.9,0.1
							c-0.8,0-1.5-0.2-2.2-0.6c-3-1.9-10.6-5.3-24.9-5.8h-0.1C9.3,0.1,7.5,1.5,7,3.5c-2.9,13-1.6,20.8-0.5,24.4
							c0.4,1.2,0.2,2.5-0.5,3.6c-2.3,3.9-4.3,8-5.8,12.2c-0.3,0.8-0.3,1.7-0.1,2.5c1.6,6.3,10.7,33.6,47,33.6s45.4-27.2,47-33.5
							c0.2-0.8,0.2-1.7-0.1-2.5c-1.6-4.3-3.5-8.4-5.8-12.2c-0.7-1.1-0.8-2.4-0.5-3.6c1.1-3.6,2.4-11.5-0.5-24.5C86.8,1.4,85,0,83,0z
							"/>
					</g>
				</g>
			</g>
		</g>
		<path class="st2" d="M34,45.4c0.6,0.2,1.4-0.3,1.8-1.2c0.4-0.7,0.1-1.6-0.5-2c-0.6-0.2-1.4,0.3-1.7,1.2S33.4,45.2,34,45.4z"/>
		<path class="st2" d="M64.6,45.4c-0.7-0.4-0.9-1.3-0.6-2c0.3-0.9,1.1-1.4,1.7-1.2c0.7,0.4,0.9,1.3,0.6,2
			C66,45.1,65.3,45.6,64.6,45.4z"/>
	</g>
</g>
</svg>
