<?xml version="1.0" encoding="UTF-8" standalone="no"?><!DOCTYPE svg PUBLIC "-//W3C//DTD SVG 1.1//EN" "http://www.w3.org/Graphics/SVG/1.1/DTD/svg11.dtd"><svg width="100%" height="100%" viewBox="0 0 209 209" version="1.1" xmlns="http://www.w3.org/2000/svg" xmlns:xlink="http://www.w3.org/1999/xlink" xml:space="preserve" xmlns:serif="http://www.serif.com/" style="fill-rule:evenodd;clip-rule:evenodd;stroke-linejoin:round;stroke-miterlimit:2;"><path d="M93.5,207.792c-3.413,-0.36 -6.806,-0.889 -10.167,-1.584c3.361,0.695 6.754,1.224 10.167,1.584Z" style="fill:#2b68a5;fill-rule:nonzero;"/><path d="M177.833,177.833c-3.49,3.481 -7.221,6.711 -11.166,9.667c3.945,-2.956 7.676,-6.186 11.166,-9.667Z" style="fill:#2b68a5;fill-rule:nonzero;"/><path d="M206.208,125c-0.694,3.389 -1.555,6.722 -2.583,10c1.028,-3.167 1.889,-6.5 2.583,-10Z" style="fill:#2b68a5;fill-rule:nonzero;"/><path d="M203.667,135.125c-1.028,3.25 -2.195,6.444 -3.5,9.583c1.305,-3.111 2.472,-6.305 3.5,-9.583Z" style="fill:#2b68a5;fill-rule:nonzero;"/><path d="M193.25,158.333c-2.605,4.287 -5.515,8.381 -8.708,12.25c3.193,-3.869 6.103,-7.963 8.708,-12.25Z" style="fill:#2b68a5;fill-rule:nonzero;"/><path d="M125,206.208c-3.416,0.701 -6.865,1.229 -10.333,1.584c3.468,-0.355 6.917,-0.883 10.333,-1.584Z" style="fill:#2b68a5;fill-rule:nonzero;"/><path d="M4.667,135.125c-1,-3.25 -1.848,-6.625 -2.542,-10.125c0.694,3.5 1.542,6.875 2.542,10.125Z" style="fill:#2b68a5;fill-rule:nonzero;"/><path d="M8.333,144.708c-1.305,-3.111 -2.472,-6.305 -3.5,-9.583c0.917,3.278 2.084,6.472 3.5,9.583Z" style="fill:#2b68a5;fill-rule:nonzero;"/><path d="M23.792,170.417c-3.187,-3.816 -6.097,-7.854 -8.709,-12.084c2.612,4.23 5.522,8.268 8.709,12.084Z" style="fill:#2b68a5;fill-rule:nonzero;"/><path d="M41.667,187.5c-4.008,-3.003 -7.796,-6.289 -11.334,-9.833c3.538,3.544 7.326,6.83 11.334,9.833Z" style="fill:#2b68a5;fill-rule:nonzero;"/><path d="M104.167,0c-57.137,0.011 -104.147,47.03 -104.147,104.167c0,6.997 0.706,13.977 2.105,20.833c0.694,3.389 1.556,6.722 2.583,10c1.028,3.278 2.236,6.514 3.625,9.708c3.886,9.271 9.093,17.93 15.459,25.709c2.111,2.583 4.347,5.055 6.708,7.416c3.49,3.481 7.222,6.711 11.167,9.667c15.068,11.291 32.933,18.264 51.666,20.167c7.079,0.716 14.213,0.716 21.292,-0c23.814,-2.448 46.071,-13.032 63,-29.959c2.361,-2.361 4.597,-4.833 6.708,-7.416c6.43,-7.727 11.707,-16.345 15.667,-25.584c1.306,-3.111 2.472,-6.305 3.5,-9.583c1.028,-3.278 1.889,-6.611 2.583,-10c1.417,-6.896 2.131,-13.918 2.131,-20.958c-0,-57.099 -46.949,-104.101 -104.047,-104.167Z" style="fill:#183960;fill-rule:nonzero;"/><path d="M147.667,69.958c-11.416,-4.73 -18.891,-15.934 -18.875,-28.291l-21.875,-0l-0,85.625c-0.01,10.21 -8.415,18.607 -18.625,18.607c-10.218,0 -18.625,-8.407 -18.625,-18.625c-0,-10.217 8.407,-18.625 18.625,-18.625c1.791,0 3.574,0.259 5.291,0.768l0,-21.25c-1.74,-0.234 -3.494,-0.352 -5.25,-0.352c-21.623,0 -39.416,17.794 -39.416,39.417c-0,21.623 17.793,39.417 39.416,39.417c21.601,-0 39.384,-17.757 39.417,-39.357l0,-43.292c9.197,6.585 20.23,10.127 31.542,10.125l-0,-21.875c-3.988,0.001 -7.937,-0.777 -11.625,-2.292Z" style="fill:#fff;fill-rule:nonzero;"/></svg>