<?xml version="1.0" encoding="UTF-8" standalone="no"?><!DOCTYPE svg PUBLIC "-//W3C//DTD SVG 1.1//EN" "http://www.w3.org/Graphics/SVG/1.1/DTD/svg11.dtd"><svg width="100%" height="100%" viewBox="0 0 209 209" version="1.1" xmlns="http://www.w3.org/2000/svg" xmlns:xlink="http://www.w3.org/1999/xlink" xml:space="preserve" xmlns:serif="http://www.serif.com/" style="fill-rule:evenodd;clip-rule:evenodd;stroke-linejoin:round;stroke-miterlimit:2;"><path d="M104.167,0c-57.144,0 -104.167,47.023 -104.167,104.167c-0,-57.144 47.023,-104.167 104.167,-104.167Z" style="fill:#fff;fill-rule:nonzero;"/><path d="M208.333,104.167c0,-57.144 -47.022,-104.167 -104.166,-104.167c57.144,-0 104.166,47.023 104.166,104.167Z" style="fill:#fff;fill-rule:nonzero;"/><path d="M0,104.167c0,57.144 47.023,104.166 104.167,104.166c-57.144,0 -104.167,-47.022 -104.167,-104.166Z" style="fill:#fff;fill-rule:nonzero;"/><path d="M104.167,208.333c57.144,0 104.166,-47.022 104.166,-104.166c0,57.144 -47.022,104.166 -104.166,104.166Z" style="fill:#fff;fill-rule:nonzero;"/><path d="M208.333,104.167c0,-57.144 -47.022,-104.167 -104.166,-104.167c-57.144,-0 -104.167,47.023 -104.167,104.167c-0,57.144 47.023,104.166 104.167,104.166c57.144,0 104.166,-47.022 104.166,-104.166Z" style="fill:#183960;fill-rule:nonzero;"/><path d="M165.167,53.583c-5.159,3.054 -10.792,5.223 -16.667,6.417c-5.012,-5.304 -11.995,-8.313 -19.292,-8.313c-14.537,0 -26.507,11.943 -26.541,26.48c-0.018,2.035 0.22,4.065 0.708,6.041c-21.319,-1.055 -41.212,-11.138 -54.667,-27.708c-6.979,12.07 -3.299,27.689 8.334,35.375c-4.207,-0.111 -8.325,-1.241 -12,-3.292l-0,0.334c0.008,12.58 8.959,23.511 21.291,26c-2.281,0.617 -4.636,0.925 -7,0.916c-1.679,0 -3.354,-0.167 -5,-0.5c3.439,10.784 13.433,18.221 24.75,18.417c-9.482,7.426 -21.206,11.422 -33.25,11.333c-2.117,0.014 -4.232,-0.111 -6.333,-0.375c12.055,7.864 26.149,12.035 40.542,12c48.791,0 75.458,-40.416 75.458,-75.458l0,-3.417c5.196,-3.762 9.682,-8.418 13.25,-13.75c-4.85,2.133 -9.989,3.537 -15.25,4.167c5.544,-3.304 9.695,-8.522 11.667,-14.667Z" style="fill:#fff;fill-rule:nonzero;"/></svg>