<?xml version="1.0" encoding="UTF-8" standalone="no"?><!DOCTYPE svg PUBLIC "-//W3C//DTD SVG 1.1//EN" "http://www.w3.org/Graphics/SVG/1.1/DTD/svg11.dtd"><svg width="100%" height="100%" viewBox="0 0 209 209" version="1.1" xmlns="http://www.w3.org/2000/svg" xmlns:xlink="http://www.w3.org/1999/xlink" xml:space="preserve" xmlns:serif="http://www.serif.com/" style="fill-rule:evenodd;clip-rule:evenodd;stroke-linejoin:round;stroke-miterlimit:2;"><circle cx="104.167" cy="104.167" r="104.167" style="fill:#183960;"/><path d="M166.458,102.417c-0.416,-8.667 -1.5,-17.25 -2.75,-25.834c-0.532,-7.403 -5.855,-13.642 -13.083,-15.333c-3.039,-0.762 -6.131,-1.291 -9.25,-1.583c-11.575,-1.371 -23.219,-2.066 -34.875,-2.084c-11.865,-0.113 -23.728,0.388 -35.542,1.5c-4.996,0.358 -9.956,1.11 -14.833,2.25c-6.713,1.522 -11.694,7.265 -12.25,14.125c-0.625,4.792 -1.208,9.584 -1.542,14.459c-1.112,14.493 -0.497,29.068 1.834,43.416c1.039,7.031 6.531,12.624 13.541,13.792c13.257,2.257 26.678,3.4 40.125,3.417c13.787,0.318 27.579,-0.252 41.292,-1.709c4.572,-0.277 9.1,-1.06 13.5,-2.333c6.301,-1.72 10.849,-7.275 11.292,-13.792c0.458,-4.166 1.166,-8.333 1.541,-12.5c0.806,-5.894 1.14,-11.844 1,-17.791Zm-78.291,22.041l-0,-40.666l35.25,20.375l-35.25,20.291Z" style="fill:#fff;fill-rule:nonzero;"/></svg>